<svg width="94" height="27" viewBox="0 0 94 27" fill="none" xmlns="http://www.w3.org/2000/svg">
<path d="M24.23 1.1C24.85 1.22 25.31 1.43 25.61 1.73C25.93 2.03 26.09 2.38 26.09 2.78C26.09 3.44 25.9 3.92 25.52 4.22C25.16 4.52 24.58 4.64 23.78 4.58C21.98 4.44 20.57 4.35 19.55 4.31C18.55 4.25 17.23 4.21 15.59 4.19C14.85 7.87 14.17 11.57 13.55 15.29C13.33 16.65 13.1 18.23 12.86 20.03C12.62 21.81 12.46 23.25 12.38 24.35C12.34 24.93 12.1 25.38 11.66 25.7C11.22 26 10.69 26.15 10.07 26.15C9.41 26.15 8.9 25.99 8.54 25.67C8.18 25.35 8 24.93 8 24.41C8 23.93 8.07 23.14 8.21 22.04C8.37 20.92 8.55 19.75 8.75 18.53C8.97 17.31 9.14 16.25 9.26 15.35C9.48 13.83 9.73 12.32 10.01 10.82C10.29 9.32 10.57 7.9 10.85 6.56C10.91 6.26 10.98 5.92 11.06 5.54C11.14 5.14 11.23 4.7 11.33 4.22C9.37 4.28 7.83 4.44 6.71 4.7C5.59 4.96 4.79 5.33 4.31 5.81C3.85 6.27 3.62 6.87 3.62 7.61C3.62 8.29 3.82 8.94 4.22 9.56C4.3 9.7 4.34 9.85 4.34 10.01C4.34 10.39 4.11 10.75 3.65 11.09C3.21 11.41 2.75 11.57 2.27 11.57C1.93 11.57 1.65 11.47 1.43 11.27C1.03 10.93 0.7 10.45 0.44 9.83C0.18 9.19 0.05 8.47 0.05 7.67C0.05 5.97 0.6 4.61 1.7 3.59C2.82 2.55 4.51 1.79 6.77 1.31C9.05 0.829999 11.97 0.589998 15.53 0.589998C17.73 0.589998 19.48 0.629998 20.78 0.709998C22.1 0.789999 23.25 0.919999 24.23 1.1ZM31.318 26.15C29.538 26.15 27.928 25.75 26.488 24.95C25.068 24.15 23.938 22.98 23.098 21.44C22.258 19.88 21.838 18.02 21.838 15.86C21.838 12.82 22.388 10.14 23.488 7.82C24.608 5.5 26.118 3.71 28.018 2.45C29.938 1.19 32.058 0.559999 34.378 0.559999C36.158 0.559999 37.758 0.959999 39.178 1.76C40.618 2.56 41.758 3.74 42.598 5.3C43.438 6.84 43.858 8.69 43.858 10.85C43.858 13.89 43.298 16.57 42.178 18.89C41.078 21.21 39.568 23 37.648 24.26C35.748 25.52 33.638 26.15 31.318 26.15ZM31.618 22.61C33.178 22.61 34.548 22.13 35.728 21.17C36.928 20.21 37.848 18.88 38.488 17.18C39.128 15.46 39.448 13.52 39.448 11.36C39.448 8.98 38.948 7.18 37.948 5.96C36.948 4.72 35.658 4.1 34.078 4.1C32.538 4.1 31.178 4.58 29.998 5.54C28.818 6.48 27.898 7.81 27.238 9.53C26.578 11.23 26.248 13.17 26.248 15.35C26.248 17.73 26.748 19.54 27.748 20.78C28.748 22 30.038 22.61 31.618 22.61ZM53.6502 26.15C52.4902 26.15 51.1802 26.05 49.7202 25.85C48.9202 25.75 48.3702 25.54 48.0702 25.22C47.7702 24.9 47.6402 24.38 47.6802 23.66C47.8202 21.68 48.1502 19.24 48.6702 16.34C49.1902 13.42 49.8202 10.61 50.5602 7.91C50.7002 7.41 50.9802 7.06 51.4002 6.86C51.8202 6.66 52.3702 6.56 53.0502 6.56C54.2702 6.56 54.8802 6.9 54.8802 7.58C54.8802 7.86 54.8202 8.18 54.7002 8.54C54.1802 10.14 53.6602 12.29 53.1402 14.99C52.6202 17.67 52.2502 20.23 52.0302 22.67C52.6302 22.73 53.3102 22.76 54.0702 22.76C57.5702 22.76 60.1802 21.7 61.9002 19.58C63.6402 17.46 64.5102 14.63 64.5102 11.09C64.5102 8.71 63.8302 6.87 62.4702 5.57C61.1102 4.27 59.1902 3.62 56.7102 3.62C55.1102 3.62 53.5202 3.87 51.9402 4.37C50.3802 4.87 48.9702 5.53 47.7102 6.35C47.4502 6.53 47.1702 6.62 46.8702 6.62C46.5302 6.62 46.2602 6.48 46.0602 6.2C45.8602 5.9 45.7602 5.54 45.7602 5.12C45.7602 4.64 45.8402 4.25 46.0002 3.95C46.1602 3.63 46.4302 3.34 46.8102 3.08C48.1902 2.14 49.8102 1.43 51.6702 0.949999C53.5302 0.449999 55.3202 0.2 57.0402 0.2C59.4802 0.2 61.5902 0.629999 63.3702 1.49C65.1502 2.33 66.5202 3.57 67.4802 5.21C68.4402 6.85 68.9202 8.83 68.9202 11.15C68.9202 14.17 68.3202 16.81 67.1202 19.07C65.9202 21.31 64.1702 23.05 61.8702 24.29C59.5702 25.53 56.8302 26.15 53.6502 26.15ZM80.8883 26.15C79.1083 26.15 77.4983 25.75 76.0583 24.95C74.6383 24.15 73.5083 22.98 72.6683 21.44C71.8283 19.88 71.4083 18.02 71.4083 15.86C71.4083 12.82 71.9583 10.14 73.0583 7.82C74.1783 5.5 75.6883 3.71 77.5883 2.45C79.5083 1.19 81.6283 0.559999 83.9483 0.559999C85.7283 0.559999 87.3283 0.959999 88.7483 1.76C90.1883 2.56 91.3283 3.74 92.1683 5.3C93.0083 6.84 93.4283 8.69 93.4283 10.85C93.4283 13.89 92.8683 16.57 91.7483 18.89C90.6483 21.21 89.1383 23 87.2183 24.26C85.3183 25.52 83.2083 26.15 80.8883 26.15ZM81.1883 22.61C82.7483 22.61 84.1183 22.13 85.2983 21.17C86.4983 20.21 87.4183 18.88 88.0583 17.18C88.6983 15.46 89.0183 13.52 89.0183 11.36C89.0183 8.98 88.5183 7.18 87.5183 5.96C86.5183 4.72 85.2283 4.1 83.6483 4.1C82.1083 4.1 80.7483 4.58 79.5683 5.54C78.3883 6.48 77.4683 7.81 76.8083 9.53C76.1483 11.23 75.8183 13.17 75.8183 15.35C75.8183 17.73 76.3183 19.54 77.3183 20.78C78.3183 22 79.6083 22.61 81.1883 22.61Z" fill="#808080"/>
</svg>
